<?xml version="1.0" standalone="no"?>
<!DOCTYPE svg PUBLIC "-//W3C//DTD SVG 20010904//EN"
 "http://www.w3.org/TR/2001/REC-SVG-20010904/DTD/svg10.dtd">
<svg version="1.0" xmlns="http://www.w3.org/2000/svg"
 width="176.000000pt" height="161.000000pt" viewBox="0 0 176.000000 161.000000"
 preserveAspectRatio="xMidYMid meet">

<g transform="translate(0.000000,161.000000) scale(0.100000,-0.100000)"
fill="#000000" stroke="none">
<path d="M890 975 c0 -96 -3 -175 -6 -175 -4 0 -27 15 -53 34 -53 38 -104 66
-123 66 -7 0 16 -18 52 -40 46 -29 65 -46 64 -60 -1 -11 3 -17 7 -14 5 3 7 10
4 15 -4 5 -1 9 4 9 6 0 11 -6 11 -12 0 -7 -44 -34 -98 -60 -53 -26 -106 -55
-117 -66 -11 -10 -29 -24 -40 -31 -13 -8 -14 -11 -4 -7 100 30 92 30 141 -3
26 -18 60 -36 76 -42 27 -9 30 -15 36 -77 4 -36 13 -80 21 -97 8 -16 19 -65
25 -109 18 -135 73 -220 176 -272 110 -55 220 -31 320 72 55 56 74 106 74 193
0 71 -43 158 -106 216 -21 20 -24 25 -9 19 11 -4 59 -9 106 -12 71 -3 93 0
130 17 79 37 123 92 159 196 18 51 18 61 6 108 -21 80 -44 119 -92 157 -82 66
-174 84 -281 56 -28 -8 -118 -51 -200 -97 -206 -116 -273 -150 -273 -139 0 5
11 12 25 16 13 3 30 13 37 22 11 13 9 13 -19 -1 -20 -11 -34 -13 -38 -7 -3 6
2 10 12 11 11 0 13 3 5 6 -9 4 -11 27 -6 99 7 100 -1 184 -17 184 -5 0 -9 -73
-9 -175z"/>
</g>
</svg>
